<svg xmlns="http://www.w3.org/2000/svg" width="512" height="512"><rect width="512" height="512" fill="#007BFF" rx="100"/><path fill="#fff" fill-rule="evenodd" d="M64.7 288.2c-5 0-9-4-8.8-9a200.4 200.4 0 0 1 400.2 0c.2 5-3.9 9-8.8 9h-18.4c-5 0-9-4-9.3-9a163.9 163.9 0 0 0-327.3 0c-.2 5-4.2 9-9.2 9H64.7zM256 160.8a127.4 127.4 0 0 0-127.2 118.4c-.3 5 3.7 9 8.7 9H156c5 0 9-4 9.5-9a91 91 0 0 1 181.2 0c.5 5 4.4 9 9.4 9h18.4c5 0 9-4 8.7-9A127.4 127.4 0 0 0 256 160.8zm45.5 127.4c0 16.7-9 31-22.1 39-3 1.9-5.2 5-5.2 8.6V414c0 5-4 9-9 9h-18.4c-5 0-9-4-9-9V335.8c0-3.6-2.2-6.8-5.2-8.6a45.5 45.5 0 1 1 69-39z" clip-rule="evenodd"/></svg>