<svg version="1" xmlns="http://www.w3.org/2000/svg" width="682.667" height="682.667" viewBox="0 0 512.000000 512.000000"><path d="M82.7 1.6c-39.2 7.1-70 36.1-80 75.1L.5 85.5v341l2.3 9c3 12 11.6 29.4 19.2 38.8 14 17.4 32.7 29.3 54.7 35l8.8 2.2h341l9-2.3c12-3 29.4-11.6 38.8-19.2 17.4-14 29.3-32.7 35-54.7l2.2-8.8v-341l-2.3-9c-3-12-11.6-29.4-19.2-38.8-13.8-17.2-32.2-29-54.2-34.9L427.5.5 259 .4C117.6.2 89.3.4 82.7 1.6zm198 87.9c37.5 4.9 73.3 20.2 101.9 43.5 42.3 34.7 69.5 86.7 73 140.2.7 9.4.6 9.7-1.9 12.2s-3 2.6-15.5 2.6c-17.1 0-17.7-.5-19.2-16.1-5.8-56.8-40.7-106.5-92.5-131.4-73.8-35.5-163.2-10.3-207.8 58.5-15.4 23.8-23.3 47.3-26.2 77.4-.6 5.6-1.2 7.3-3.2 9.2-2.4 2.3-3.3 2.4-15.5 2.4-12.4 0-13-.1-15.3-2.5-3-2.9-3.2-7.1-1-23.9 4.3-33.1 18.1-66.7 38.6-93.9 42.6-56.8 114.6-87.3 184.6-78.2zm-4 73c34.2 5.5 65.7 25.7 84.7 54.2 10.4 15.7 15.8 28.8 19.6 47.5 2.8 13.3 2.6 18.2-.5 21.3-2.3 2.4-3 2.5-14.4 2.5-12.3 0-15.9-.8-17.8-3.9-.6-1-1.9-5.9-2.7-10.9-6.2-36.1-32.7-64.6-68.3-73.4-12.4-3.1-31.4-3.1-43.3.1-31.4 8.1-56.5 32.5-65.5 63.7-1.4 4.7-2.5 9.6-2.5 10.8 0 3.9-2.1 9.6-4.2 11.6-1.9 1.8-3.6 2-15 2-12.4 0-13-.1-15.3-2.5-3.1-3-3.2-7.6-.6-21.2 6.8-34.9 26.1-63.6 55.9-83 14.3-9.4 30.3-15.6 47.7-18.7 10.7-1.9 30.9-1.9 42.2-.1zm-2.3 84.3c8.9 4.2 14.4 8.7 19 15.6 9.1 13.8 10.5 30.7 3.7 45.3-2.9 6-8 11.8-18.4 20.9l-4.7 4v85.1l-2.6 2.7c-2.6 2.5-3 2.6-15.6 2.6s-12.9-.1-15.3-2.6l-2.4-2.6-.3-43.1-.3-43-4-3.1c-8.4-6.6-15.2-14.3-18.3-20.6-12-24.7.1-53.7 26.3-62.9 4.9-1.8 7.9-2.1 16-1.8 8.9.2 10.8.6 16.9 3.5z"/></svg>